<?xml version="1.0" encoding="UTF-8"?>
<svg width="36px" height="36px" viewBox="0 0 36 36" version="1.1" xmlns="http://www.w3.org/2000/svg" xmlns:xlink="http://www.w3.org/1999/xlink">
    <!-- Generator: Sketch 50.2 (55047) - http://www.bohemiancoding.com/sketch -->
    <title>lamp</title>
    <desc>Created with Sketch.</desc>
    <defs>
        <linearGradient x1="30.8726792%" y1="0%" x2="70.8308114%" y2="96.8495515%" id="linearGradient-1">
            <stop stop-color="#E05743" offset="0%"></stop>
            <stop stop-color="#F5AA69" offset="100%"></stop>
        </linearGradient>
        <linearGradient x1="50%" y1="-35.1153549%" x2="50%" y2="93.6750163%" id="linearGradient-2">
            <stop stop-color="#E05743" offset="0%"></stop>
            <stop stop-color="#F5AA69" offset="100%"></stop>
        </linearGradient>
    </defs>
    <g id="Page-1" stroke="none" stroke-width="1" fill="none" fill-rule="evenodd">
        <g id="shutterstock_631988546" transform="translate(-195.000000, -839.000000)">
            <g id="lamp" transform="translate(197.000000, 841.000000)">
                <path d="M16,32 C7.164,32 0,24.836 0,16 C0,12.651 1.032,9.546 2.791,6.977 C3.61335135,5.93037045 4.24231236,5.17010055 4.67788304,4.69619032 C5.11345372,4.22228009 5.87982604,3.58721665 6.977,2.791 C9.546,1.032 12.652,0 16,0 C24.837,0 32,7.164 32,16 C32,24.836 24.837,32 16,32 Z" id="Path" stroke="url(#linearGradient-1)" stroke-width="3" fill-opacity="0" fill="#FFFDFD"></path>
                <path d="M18.3399495,19 C18.7066785,18.1527534 19.1043892,17.4244523 19.472,16.751 C20.326,15.188 21,13.952 21,12 C21,9.243 18.757,7 16,7 C13.243,7 11,9.243 11,12 C11,13.952 11.674,15.188 12.528,16.751 C12.8956108,17.4244523 13.2933215,18.1527534 13.6600505,19 L18.3399495,19 Z M12.0060886,20.2204974 C11.6361696,19.2903921 11.2017485,18.4950601 10.773,17.71 C9.861,16.04 9,14.463 9,12 C9,8.141 12.14,5 16,5 C19.86,5 23,8.141 23,12 C23,14.463 22.139,16.04 21.227,17.71 C20.7982515,18.4950601 20.3638304,19.2903921 19.9939114,20.2204974 C19.9688151,20.667118 19.8690887,21 19.75,21 C19.888,21 20,21.447 20,22 C20,22.553 19.888,23 19.75,23 C19.888,23 20,23.447 20,24 C20,24.553 19.888,25 19.75,25 C19.888,25 20,25.447 20,26 C20,26.553 19.888,27 19.75,27 L12.25,27 C12.112,27 12,26.553 12,26 C12,25.447 12.112,25 12.25,25 C12.112,25 12,24.553 12,24 C12,23.447 12.112,23 12.25,23 C12.112,23 12,22.553 12,22 C12,21.447 12.112,21 12.25,21 C12.1309113,21 12.0311849,20.667118 12.0060886,20.2204974 Z" fill="url(#linearGradient-2)"></path>
            </g>
        </g>
    </g>
</svg>