<?xml version="1.0" encoding="UTF-8"?>
<svg width="32px" height="32px" viewBox="0 0 32 32" version="1.1" xmlns="http://www.w3.org/2000/svg" xmlns:xlink="http://www.w3.org/1999/xlink">
    <!-- Generator: Sketch 50.2 (55047) - http://www.bohemiancoding.com/sketch -->
    <title>Combined Shape</title>
    <desc>Created with Sketch.</desc>
    <defs>
        <linearGradient x1="50%" y1="50%" x2="50%" y2="100%" id="linearGradient-1">
            <stop stop-color="#E05743" offset="0%"></stop>
            <stop stop-color="#F76B1C" offset="100%"></stop>
        </linearGradient>
    </defs>
    <g id="Page-1" stroke="none" stroke-width="1" fill="none" fill-rule="evenodd">
        <g id="shutterstock_578869888" transform="translate(-976.000000, -840.000000)" fill="url(#linearGradient-1)">
            <g id="Group-2" transform="translate(976.000000, 840.000000)">
                <path d="M32,16 L0,16 L0.044,13.706 L4.262,0 L27.74,0 L32,14 L32,16 Z M2.046,14 L29.95,14 L26.26,2 L5.738,2 L2.046,14 Z M0,20 L0,18 L32,18 L32,20 L0,20 Z M0,24 L0,22 L32,22 L32,24 L0,24 Z M0,28 L0,26 L32,26 L32,28 L0,28 Z M0,32 L0,30 L32,30 L32,32 L0,32 Z M8,11 L8,9 L16,9 L16,11 L8,11 Z M8,7 L8,5 L24,5 L24,7 L8,7 Z" id="Combined-Shape"></path>
            </g>
        </g>
    </g>
</svg>