<?xml version="1.0" encoding="UTF-8"?>
<svg width="34px" height="32px" viewBox="0 0 34 32" version="1.1" xmlns="http://www.w3.org/2000/svg" xmlns:xlink="http://www.w3.org/1999/xlink">
    <!-- Generator: Sketch 50.2 (55047) - http://www.bohemiancoding.com/sketch -->
    <title>Combined Shape</title>
    <desc>Created with Sketch.</desc>
    <defs>
        <linearGradient x1="50%" y1="36.5736914%" x2="50%" y2="100%" id="linearGradient-1">
            <stop stop-color="#E05743" offset="0%"></stop>
            <stop stop-color="#F76B1C" offset="100%"></stop>
        </linearGradient>
    </defs>
    <g id="Page-1" stroke="none" stroke-width="1" fill="none" fill-rule="evenodd">
        <g id="shutterstock_578869888" transform="translate(-248.000000, -1048.000000)" fill="url(#linearGradient-1)">
            <g id="Group" transform="translate(248.000000, 1048.000000)">
                <path d="M26,30 L26,20 L8,20 L8,30 L26,30 Z M28,30 L32,30 L32,2 L28,2 L28,12 L6,12 L6,2 L2,2 L2,30 L6,30 L6,18 L7,18 L28,18 L28,19 L28,30 Z M8,2 L8,10 L26,10 L26,2 L8,2 Z M0,32 L0,0 L34,0 L34,32 L0,32 Z M22,8 L22,4 L24,4 L24,8 L22,8 Z M17,24 L17,22 L24,22 L24,24 L17,24 Z M17,28 L17,26 L24,26 L24,28 L17,28 Z" id="Combined-Shape"></path>
            </g>
        </g>
    </g>
</svg>