<?xml version="1.0" encoding="UTF-8"?>
<svg width="32px" height="32px" viewBox="0 0 32 32" version="1.1" xmlns="http://www.w3.org/2000/svg" xmlns:xlink="http://www.w3.org/1999/xlink">
    <!-- Generator: Sketch 50.2 (55047) - http://www.bohemiancoding.com/sketch -->
    <title>Combined Shape</title>
    <desc>Created with Sketch.</desc>
    <defs>
        <linearGradient x1="76.6199682%" y1="100%" x2="31.3239551%" y2="22.1597141%" id="linearGradient-1">
            <stop stop-color="#F5AA69" offset="0%"></stop>
            <stop stop-color="#E05743" offset="100%"></stop>
        </linearGradient>
    </defs>
    <g id="Page-1" stroke="none" stroke-width="1" fill="none" fill-rule="evenodd">
        <g id="shutterstock_631988546" transform="translate(-872.000000, -944.000000)" fill="url(#linearGradient-1)">
            <g id="Group-7" transform="translate(872.000000, 944.000000)">
                <path d="M0,32 L32,32 L32,3 L0,3 L0,32 Z M26,5 L30,5 L30,8 L2,8 L2,5 L6,5 L8,5 L12,5 L14,5 L18,5 L20,5 L24,5 L26,5 Z M26,3 L24,3 L24,0 L26,0 L26,3 Z M26,5 L24,5 L24,6 L26,6 L26,5 Z M18,3 L18,0 L20,0 L20,3 L18,3 Z M20,5 L18,5 L18,6 L20,6 L20,5 Z M14,3 L12,3 L12,0 L14,0 L14,3 Z M12,5 L12,6 L14,6 L14,5 L12,5 Z M6,3 L6,0 L8,0 L8,3 L6,3 Z M6,5 L6,6 L8,6 L8,5 L6,5 Z M2,10 L30,10 L30,30 L2,30 L2,10 Z M15,15 L17,15 L17,13 L15,13 L15,15 Z M19,15 L21,15 L21,13 L19,13 L19,15 Z M23,15 L25,15 L25,13 L23,13 L23,15 Z M7,15 L9,15 L9,13 L7,13 L7,15 Z M11,15 L13,15 L13,13 L11,13 L11,15 Z M15,19 L17,19 L17,17 L15,17 L15,19 Z M19,19 L21,19 L21,17 L19,17 L19,19 Z M23,19 L25,19 L25,17 L23,17 L23,19 Z M7,19 L9,19 L9,17 L7,17 L7,19 Z M11,19 L13,19 L13,17 L11,17 L11,19 Z M15,23 L17,23 L17,21 L15,21 L15,23 Z M19,23 L21,23 L21,21 L19,21 L19,23 Z M23,23 L25,23 L25,21 L23,21 L23,23 Z M7,23 L9,23 L9,21 L7,21 L7,23 Z M11,23 L13,23 L13,21 L11,21 L11,23 Z M15,27 L17,27 L17,25 L15,25 L15,27 Z M19,27 L21,27 L21,25 L19,25 L19,27 Z M23,27 L25,27 L25,25 L23,25 L23,27 Z M7,27 L9,27 L9,25 L7,25 L7,27 Z M11,27 L13,27 L13,25 L11,25 L11,27 Z" id="Combined-Shape"></path>
            </g>
        </g>
    </g>
</svg>