<svg id="spott-wordmark" xmlns="http://www.w3.org/2000/svg" viewBox="0 0 240 85" fill="#17172B">
  <path d="M202 14h-10.1c-.7 0-1.3-.7-1.3-1.3V1.3c0-.7-.7-1.3-1.3-1.3h-8.7c-.7 0-1.3.7-1.3 1.3v11.4c0 .7-.7 1.3-1.3 1.3h-5c-.7 0-1.3.7-1.3 1.3V24c0 .7.7 1.3 1.3 1.3h4.4c.7 0 1.3.7 1.3 1.3v42.8c0 .7.7 1.3 1.3 1.3h8.7c.7 0 1.3-.7 1.3-1.3V26.2c0-.7.7-1.3 1.3-1.3h10.1c.7 0 1.3-.7 1.3-1.3v-8.7c-.1-.6-.4-.9-.7-.9zM238.7 14h-10.8c-.7 0-1.3-.7-1.3-1.3V1.3c0-.7-.7-1.3-1.3-1.3h-8.7c-.7 0-1.3.7-1.3 1.3v11.4c0 .7-.7 1.3-1.3 1.3h-4.4c-.7 0-1.3.7-1.3 1.3V24c0 .7.7 1.3 1.3 1.3h4.4c.7 0 1.3.7 1.3 1.3v42.8c0 .7.7 1.3 1.3 1.3h8.7c.7 0 1.3-.7 1.3-1.3V26.2c0-.7.7-1.3 1.3-1.3h10.8c.7 0 1.3-.7 1.3-1.3v-8.7c0-.6-.7-.9-1.3-.9zM75.7 14c-5.4 0-10.8 1.7-15.1 4.4-.4.3-1.1.3-1.4 0-.4-.3-.6-.7-.6-1v-2c0-.7-.7-1.3-1.3-1.3h-8.7c-.7 0-1.3.7-1.3 1.3v68.3c0 .7.7 1.3 1.3 1.3h8.7c.7 0 1.3-.7 1.3-1.3V67.3c0-.3.3-.8.7-1 .4-.2.9-.3 1.3 0 4.7 3 9.8 4.4 15.1 4.4 15.8 0 28.6-12.7 28.6-28.4S91.2 14 75.7 14zm17.2 28.1c0 9.4-7.7 17.1-17.2 17.1s-17.2-7.7-17.2-17.1c0-9.4 7.7-17.1 17.2-17.1s17.2 7.7 17.2 17.1zM138.6 13.9c-15.7 0-28.5 12.7-28.5 28.3s12.7 28.3 28.5 28.3c15.7 0 28.5-12.7 28.5-28.3s-12.8-28.3-28.5-28.3zm0 45.3c-9.4 0-17.1-7.7-17.1-17s7.7-17 17.1-17 17.1 7.7 17.1 17-7.8 17-17.1 17zM32.4 66.6c3.4-3 5.4-7.4 5.7-11.4 1-11.7-8.4-15.7-16.8-18.4-6.4-2-9.1-3.7-9.1-7 .3-2 1.3-5.7 8.4-5 3.7.3 6.1 2 7.7 3.3.6.5 1.2.4 1.7 0l6.7-5.7c.3-.3.5-.7.5-1s-.1-.6-.5-1c-2.4-2.3-7.4-6.7-15.1-7.4C8.5 12 2.1 20 1.4 28.4c-1 12 8.1 15.7 16.5 18.4 6.1 2 9.4 3.7 9.1 7.4 0 1.7-1 6.4-9.1 6-4.7-.3-7.3-2.8-8.7-4.4-.3-.3-.7-.5-1.1-.5-.4 0-.6.1-1 .5L.6 61.3c-.6.6-.9 1.2-.3 1.9 2 2.2 6.8 7.6 16.9 8.3 10.4.8 15.2-4.9 15.2-4.9z"/>
</svg>